<svg xmlns="http://www.w3.org/2000/svg" viewBox="0 0 1000 1000" id="coupon">
  <path d="M442.18,931.92a30.09,30.09,0,0,1-4.2-.3c-17.38-2.48-27.42-18.94-36.28-33.47-3.51-5.75-10-16.38-13.33-18.09-3.79-.47-15.28,5.11-21.49,8.12-15.15,7.36-32.33,15.69-48.06,8.5S298,870.85,293.63,854.47c-1.76-6.56-5-18.71-7.76-21.28-3.49-1.49-16,.6-22.76,1.73-16.65,2.79-35.53,6-48.64-5.42S201.79,799,202.2,782.06c.16-6.83.46-19.48-1.49-22.72-2.94-2.39-15.47-3.87-22.23-4.68-16.81-2-35.87-4.25-45.29-18.89s-3.58-32.79,1.54-48.86c2.09-6.55,6-18.68,5-22.35-2.16-3.08-13.67-8-19.89-10.66-15.62-6.68-33.32-14.25-38.24-31-4.85-16.55,5.84-32.32,15.27-46.23,3.89-5.74,11.09-16.37,11.14-20.2C106.74,552.9,97.19,545,92,540.75,78.89,529.9,64,517.6,64,500s14.89-29.9,28-40.75c5.17-4.27,14.75-12.19,15.94-15.7,0-3.69-7.24-14.4-11.15-20.17-9.43-13.91-20.12-29.68-15.27-46.23,4.92-16.8,22.62-24.37,38.24-31,6.22-2.66,17.73-7.58,19.89-10.66,1-3.67-2.87-15.8-5-22.35-5.12-16.07-10.93-34.29-1.54-48.86s28.48-16.9,45.29-18.89c6.76-.81,19.29-2.29,22.23-4.68,1.95-3.24,1.65-15.89,1.49-22.72-.41-16.9-.86-36.06,12.27-47.44s32-8.21,48.64-5.43c6.76,1.14,19.27,3.23,22.76,1.74,2.76-2.57,6-14.72,7.76-21.28,4.37-16.38,9.32-34.95,25.19-42.21s32.91,1.14,48.06,8.5c6.21,3,17.71,8.59,21.49,8.12,3.34-1.71,9.82-12.34,13.33-18.09,8.86-14.53,18.9-31,36.28-33.47C455,66,469,78.75,481.43,90c5.19,4.72,14.8,13.47,18.57,14,3.77-.49,13.38-9.24,18.57-14C531,78.75,545,66,562,68.38c17.38,2.48,27.42,18.94,36.28,33.47,3.51,5.75,10,16.38,13.33,18.09,3.8.48,15.28-5.11,21.49-8.12,15.15-7.36,32.33-15.69,48.06-8.5s20.82,25.83,25.19,42.21c1.76,6.56,5,18.71,7.76,21.28,3.49,1.49,16-.6,22.76-1.73,16.65-2.79,35.53-6,48.64,5.42S798.21,201,797.8,217.94c-.16,6.83-.46,19.48,1.49,22.72,2.94,2.39,15.47,3.87,22.23,4.68,16.81,2,35.87,4.25,45.29,18.89s3.58,32.79-1.54,48.86c-2.09,6.55-6,18.68-5,22.35,2.16,3.08,13.67,8,19.89,10.66,15.62,6.68,33.32,14.25,38.24,31,4.85,16.55-5.84,32.32-15.27,46.23-3.89,5.74-11.09,16.37-11.14,20.2,1.23,3.52,10.78,11.41,15.94,15.67,13.14,10.85,28,23.15,28,40.75s-14.89,29.9-28,40.75c-5.17,4.27-14.75,12.19-15.94,15.7,0,3.69,7.24,14.4,11.15,20.17,9.43,13.91,20.12,29.68,15.27,46.23-4.92,16.8-22.62,24.37-38.24,31-6.22,2.66-17.73,7.58-19.89,10.66-1,3.67,2.87,15.8,5,22.35,5.12,16.07,10.93,34.29,1.54,48.86s-28.48,16.9-45.29,18.89c-6.76.81-19.29,2.29-22.23,4.68-1.95,3.24-1.65,15.89-1.49,22.72.41,16.9.86,36.06-12.27,47.44s-32,8.21-48.64,5.43c-6.76-1.14-19.27-3.23-22.76-1.74-2.76,2.57-6,14.72-7.76,21.28-4.37,16.38-9.32,34.95-25.19,42.21s-32.9-1.14-48.06-8.5c-6.21-3-17.7-8.58-21.49-8.12-3.34,1.71-9.82,12.34-13.33,18.09-8.86,14.53-18.9,31-36.28,33.47C545,934,531,921.25,518.57,910c-5.19-4.72-14.8-13.47-18.57-14-3.77.49-13.38,9.24-18.57,14C470.07,920.31,457.32,931.92,442.18,931.92ZM557.12,900Zm-114.24,0Zm-54.8-52a32.88,32.88,0,0,1,9.32,1.31c14.63,4.29,23.27,18.44,31.62,32.14,3.49,5.73,9.88,16.2,13.42,18.31,3.89-1.15,12.65-9.12,17.45-13.49C471.94,875.34,484.4,864,500,864s28.06,11.34,40.11,22.31c4.8,4.37,13.56,12.34,17.45,13.49,3.54-2.11,9.93-12.58,13.42-18.31,8.35-13.7,17-27.85,31.62-32.14,14.85-4.35,29.92,3,44.5,10,5.88,2.86,16.6,8.06,20.7,8.06h.05c2.75-3,5.89-14.79,7.6-21.23,4.15-15.55,8.45-31.64,21.33-39.94s29.45-5.59,45.39-2.92c6.52,1.1,18.42,3.09,22.32,1.87,1.77-3.68,1.48-15.78,1.32-22.4-.39-16.15-.79-32.84,9.3-44.47s26.63-13.57,42.64-15.47c6.6-.79,18.64-2.21,22-4.5.63-4-3-15.48-5-21.76-4.92-15.42-10-31.36-3.57-45.4s21.63-20.44,36.41-26.76c6.15-2.62,17.37-7.42,20-10.6-.57-4-7.25-13.89-10.92-19.29-9.11-13.45-18.53-27.35-16.34-42.72,2.14-15.05,14.91-25.59,27.25-35.79,5.25-4.33,14.89-12.29,16.33-16.07-1.44-3.78-11.08-11.74-16.33-16.07-12.34-10.2-25.11-20.74-27.25-35.79-2.19-15.37,7.23-29.27,16.34-42.72,3.67-5.4,10.35-15.26,10.92-19.29-2.61-3.18-13.83-8-20-10.6-14.78-6.32-30.06-12.86-36.41-26.76s-1.35-30,3.57-45.4c2-6.28,5.65-17.73,5-21.76-3.41-2.28-15.45-3.71-22-4.5-16-1.9-32.57-3.86-42.64-15.47s-9.68-28.32-9.3-44.46c.16-6.63.45-18.72-1.32-22.41-3.9-1.22-15.8.77-22.32,1.87-15.94,2.67-32.42,5.43-45.38-2.92s-17.18-24.39-21.33-39.94c-1.72-6.44-4.86-18.19-7.61-21.23h-.05c-4.1,0-14.82,5.2-20.7,8.06-14.58,7.07-29.65,14.39-44.5,10C588,146.36,579.33,132.21,571,118.51c-3.49-5.73-9.88-16.2-13.42-18.31-3.89,1.15-12.65,9.12-17.45,13.49C528.06,124.66,515.6,136,500,136s-28.06-11.34-40.11-22.31c-4.8-4.37-13.56-12.34-17.45-13.49-3.54,2.11-9.93,12.58-13.42,18.31-8.35,13.7-17,27.85-31.62,32.14-14.85,4.35-29.92-3-44.5-10-5.88-2.86-16.6-8.06-20.7-8.06h-.05c-2.75,3-5.89,14.79-7.6,21.23-4.15,15.55-8.45,31.64-21.33,39.94s-29.45,5.59-45.39,2.92c-6.52-1.1-18.42-3.09-22.32-1.87-1.77,3.68-1.48,15.78-1.32,22.4.39,16.15.79,32.84-9.3,44.47s-26.63,13.57-42.64,15.47c-6.6.79-18.64,2.21-22.05,4.5-.63,4,3,15.48,5,21.76,4.92,15.42,10,31.36,3.57,45.4s-21.63,20.44-36.41,26.76c-6.15,2.62-17.37,7.42-20,10.6.57,4,7.25,13.89,10.92,19.29,9.11,13.45,18.53,27.35,16.34,42.72-2.14,15.05-14.91,25.59-27.25,35.79-5.25,4.33-14.89,12.29-16.33,16.07,1.44,3.78,11.08,11.74,16.33,16.07,12.34,10.2,25.11,20.74,27.25,35.79,2.19,15.37-7.23,29.27-16.34,42.72-3.67,5.4-10.35,15.26-10.92,19.29,2.61,3.18,13.83,8,20,10.6,14.78,6.32,30.06,12.86,36.41,26.76s1.35,30-3.57,45.4c-2,6.28-5.65,17.73-5,21.76,3.41,2.28,15.45,3.71,22.05,4.5,16,1.9,32.57,3.86,42.64,15.47s9.68,28.32,9.3,44.46c-.16,6.63-.45,18.72,1.32,22.41,3.9,1.22,15.8-.77,22.32-1.87,15.94-2.67,32.42-5.43,45.38,2.92s17.18,24.39,21.33,39.94c1.72,6.44,4.86,18.19,7.61,21.23,4.07,0,14.85-5.19,20.75-8.06C364.43,853.79,376.28,848,388.08,848Zm223.42,32ZM388.24,880Zm223.52,0Zm56.59-12.58Zm-336.7,0ZM714,833.24Zm-428,0Zm479-28.19Zm34.23-45.63Zm-598.38,0Zm-41-41.33ZM887.64,614.38Zm-775.28,0Zm775.53-.92Zm-775.78,0ZM904,500.36ZM96,500.36ZM904,499.64ZM96,499.64Zm791.92-113.1Zm-775.78,0Zm775.53-.92Zm-775.28,0ZM840.19,281.91Zm-41-41.33Zm-598.38,0ZM235,195Zm479-28.19Zm-428,0Zm382.36-34.18Zm-336.7,0ZM611.76,120Zm-223.52,0Zm.26-.08Zm168.62-20Zm-114.24,0Z"></path>
  <path d="M371.44 462.09a90.66 90.66 0 1164.12-26.53A90.37 90.37 0 01371.44 462.09zm0-149.32a58.67 58.67 0 1041.5 17.16A58.55 58.55 0 00371.44 312.77zM628.56 719.22a90.66 90.66 0 1164.13-26.53A90.37 90.37 0 01628.56 719.22zm0-149.32a58.67 58.67 0 1041.51 17.16A58.52 58.52 0 00628.56 569.9zM364.14 691.86a56 56 0 01-39.6-95.6L596.26 324.54a56 56 0 0179.2 79.2L403.74 675.46A55.63 55.63 0 01364.14 691.86zM635.86 340.15a23.93 23.93 0 00-17 7L347.17 618.89a24 24 0 1033.94 33.94L652.83 381.11a24 24 0 00-17-41z"></path>
</svg>
